<svg xmlns="http://www.w3.org/2000/svg" xmlns:xlink="http://www.w3.org/1999/xlink" width="21.538" height="23.957" viewBox="0 0 21.538 23.957">
  <defs>
    <style>
      .cls-1 {
        fill: url(#linear-gradient);
      }
    </style>
    <linearGradient id="linear-gradient" x1="0.359" y1="0.938" x2="0.752" gradientUnits="objectBoundingBox">
      <stop offset="0" stop-color="#4c6ef5"/>
      <stop offset="1" stop-color="#7f98fc"/>
    </linearGradient>
  </defs>
  <path id="路径_3490" data-name="路径 3490" class="cls-1" d="M53.857,24.468a1.09,1.09,0,1,1,0-2.18H70.8a1.09,1.09,0,1,1,0,2.18Zm.659-3.6a2.964,2.964,0,0,1-2.97-2.97A2.859,2.859,0,0,1,54.4,15.038h3.67A1.963,1.963,0,0,0,60.03,13.08a1.92,1.92,0,0,0-.862-1.623A5.928,5.928,0,0,1,61.012.661a5.825,5.825,0,0,1,1.323-.15A5.936,5.936,0,0,1,66.024,1.8a5.936,5.936,0,0,1,.06,9.221c-.018.012-.036.024-.066.048-.126.09-.383.281-.539.377a1.918,1.918,0,0,0-.856,1.629,1.957,1.957,0,0,0,1.958,1.952h3.6a2.917,2.917,0,0,1,2.054,4.976,2.925,2.925,0,0,1-2.054.85H54.515Z" transform="translate(-51.545 -0.512)"/>
</svg>
