<svg xmlns="http://www.w3.org/2000/svg" width="18" height="16.683" viewBox="0 0 18 16.683">
  <g id="组_6127" data-name="组 6127" transform="translate(-85.417 -116.623)">
    <path id="路径_3497" data-name="路径 3497" d="M86,133.306a.576.576,0,0,1-.411-.173.593.593,0,0,1-.17-.417V130.5c0-.068,0-.1,0-.145,0-.49.32-.98,1.007-1.546a12.9,12.9,0,0,1,1.979-1.277,21.4,21.4,0,0,1,3.434-1.481,11.583,11.583,0,0,1-1-2.206,9.264,9.264,0,0,1-.308-2.423,9.876,9.876,0,0,1,.113-2.084,3.543,3.543,0,0,1,1.49-2.158,4.874,4.874,0,0,1,4.534,0,3.512,3.512,0,0,1,1.488,2.156,10.875,10.875,0,0,1-.187,4.5,10.515,10.515,0,0,1-1.011,2.221,21.631,21.631,0,0,1,3.425,1.594,17.214,17.214,0,0,1,1.961,1.277c.7.545,1.016.951,1.063,1.355.007.05.01.082.011.1a.591.591,0,0,1,0,.109v2.226a.584.584,0,0,1-.582.59l-16.832,0Zm.582-2.856v1.676l15.67,0v-1.663a3.079,3.079,0,0,0-.8-.733,17.614,17.614,0,0,0-1.821-1.15,15.091,15.091,0,0,0-3.774-1.6.593.593,0,0,1-.325-.982,7.341,7.341,0,0,0,1.325-2.545,10.082,10.082,0,0,0,.167-3.8,2.8,2.8,0,0,0-5.271,0,9.552,9.552,0,0,0-.071,1.738,8,8,0,0,0,.239,2.048A7.724,7.724,0,0,0,93.247,126a.593.593,0,0,1-.322.982,16.549,16.549,0,0,0-3.863,1.531c-1.915,1.016-2.447,1.687-2.487,1.853A.546.546,0,0,1,86.583,130.451Zm0,0" transform="translate(0 0)"/>
  </g>
</svg>
