<svg xmlns="http://www.w3.org/2000/svg" xmlns:xlink="http://www.w3.org/1999/xlink" width="25.36" height="25.375" viewBox="0 0 25.36 25.375">
  <defs>
    <style>
      .cls-1 {
        opacity: 0.3;
      }

      .cls-1, .cls-2 {
        fill: url(#linear-gradient);
      }
    </style>
    <linearGradient id="linear-gradient" y1="0.5" x2="1" y2="0.5" gradientUnits="objectBoundingBox">
      <stop offset="0" stop-color="#f2679f"/>
      <stop offset="1" stop-color="#fd8376"/>
    </linearGradient>
  </defs>
  <g id="组_4555" data-name="组 4555" transform="translate(-238 -291)">
    <path id="路径_2947" data-name="路径 2947" class="cls-1" d="M18.413.005c-1.741-.058-4.352,2.13-5.438,2.143C11.893,2.135,9.282-.053,7.541.005s-1.852.99-1.8,2.034c.042.871,2.162,2.545,2.76,3.2a1.25,1.25,0,0,0,.5.205h8.615a1.241,1.241,0,0,0,.5-.205c.6-.651,2.056-2.326,2.1-3.2C20.265.995,20.161.06,18.413.005Zm0,0" transform="translate(237.703 290.996)"/>
    <path id="路径_2972" data-name="路径 2972" class="cls-2" d="M22.988,13.19a71.844,71.844,0,0,0-4.612-5.6,1.24,1.24,0,0,0-.706-.333H8.282a1.236,1.236,0,0,0-.7.333,70.942,70.942,0,0,0-4.614,5.6c-1.7,2.592-3.172,5.537-2.5,7.652A5.982,5.982,0,0,0,5.641,24.89c3.825.343,6.542.492,7.334.488s3.51-.145,7.338-.488a5.982,5.982,0,0,0,5.18-4.048c.669-2.115-.807-5.061-2.5-7.652Zm-7.069,6.751-2.944-1.547-2.944,1.547.563-3.278L8.215,14.341l3.29-.478,1.47-2.984,1.472,2.984,3.292.478-2.383,2.322Zm0,0" transform="translate(237.703 290.996)"/>
  </g>
</svg>
