<svg xmlns="http://www.w3.org/2000/svg" xmlns:xlink="http://www.w3.org/1999/xlink" width="20.297" height="22.834" viewBox="0 0 20.297 22.834">
  <defs>
    <style>
      .cls-1 {
        fill: url(#linear-gradient);
      }
    </style>
    <linearGradient id="linear-gradient" x1="0.274" y1="0.151" x2="0.894" y2="0.871" gradientUnits="objectBoundingBox">
      <stop offset="0" stop-color="#eac36e"/>
      <stop offset="1" stop-color="#d98b65"/>
    </linearGradient>
  </defs>
  <path id="路径_3491" data-name="路径 3491" class="cls-1" d="M236.114,197.613a2.643,2.643,0,0,0-1.024.2c-.024-.024-.036-.048-.061-.072l-6.51-6.387a1.706,1.706,0,0,0-1.646-.421l-.013-.013c-.012.013-.036.013-.048.025a1.619,1.619,0,0,0-.6.325c-4,2.37-6.742,8.083-6.742,12.811a8.938,8.938,0,0,0,0,1.612h12.533v-6.231l.622.614a1.743,1.743,0,0,0,.342.264,1.206,1.206,0,0,0,2.377.12h.024v-.24a.719.719,0,0,1,1.439,0V205.7h1.926v-5.473A2.589,2.589,0,0,0,236.114,197.613Zm3.584-11.68c-.1-.373-1.3-.866-1.683-.77l-.232.06-1.146-1.275a6.653,6.653,0,0,0-1.194-1.01c-.658-.373-5.767.7-6.425,1.7a3.919,3.919,0,0,0-.463,1.178l-.4,1.961-.232.06c-.378.1-1.17,1.119-1.073,1.492a.706.706,0,0,0,.878.493l1.536-.4a4.225,4.225,0,0,0,8.364-.757,4.026,4.026,0,0,0-.244-1.383l1.8-.481a.7.7,0,0,0,.512-.866Zm-3.194-2.141.174.171C236.742,184.03,236.71,183.99,236.5,183.792Z" transform="translate(-219.429 -182.863)"/>
</svg>
