<svg id="组件_91_1" data-name="组件 91 – 1" xmlns="http://www.w3.org/2000/svg" width="8.486" height="8.486" viewBox="0 0 8.486 8.486">
  <defs>
    <style>
      .cls-1 {
        fill: none;
      }

      .cls-2, .cls-3 {
        stroke: none;
      }

      .cls-3 {
        fill: #d7dae0;
      }
    </style>
  </defs>
  <g id="联合_1" data-name="联合 1" class="cls-1" transform="translate(986.414 -982.171) rotate(-45)">
    <path class="cls-2" d="M-1394,6a1,1,0,0,1-1-1,1,1,0,0,1,1-1h3V1a1,1,0,0,1,1-1,1,1,0,0,1,1,1V5a1,1,0,0,1-1,1Z"/>
    <path class="cls-3" d="M -1389.999633789062 5.00029993057251 L -1389.999755859375 5.000400066375732 L -1390.00048828125 0.9998999834060669 L -1390.00048828125 3.999599933624268 L -1390.00048828125 4.999599933624268 L -1391.00048828125 4.999599933624268 L -1394.000122070312 5.00029993057251 L -1389.999633789062 5.00029993057251 M -1389.999633789062 6.00029993057251 L -1394.000122070312 6.00029993057251 C -1394.551879882812 6.00029993057251 -1395 5.55210018157959 -1395 5.000400066375732 C -1395 4.447800159454346 -1394.551879882812 3.999599933624268 -1394.000122070312 3.999599933624268 L -1391.00048828125 3.999599933624268 L -1391.00048828125 0.9998999834060669 C -1391.00048828125 0.4472999572753906 -1390.55224609375 -3.471374654395731e-08 -1389.999633789062 -3.471374654395731e-08 C -1389.447875976562 -3.471374654395731e-08 -1388.999755859375 0.4472999572753906 -1388.999755859375 0.9998999834060669 L -1388.999755859375 5.000400066375732 C -1388.999755859375 5.55210018157959 -1389.447875976562 6.00029993057251 -1389.999633789062 6.00029993057251 Z"/>
  </g>
</svg>
