<svg xmlns="http://www.w3.org/2000/svg" xmlns:xlink="http://www.w3.org/1999/xlink" width="22.664" height="22.664" viewBox="0 0 22.664 22.664">
  <defs>
    <style>
      .cls-1, .cls-2 {
        fill: url(#linear-gradient);
      }

      .cls-2 {
        opacity: 0.2;
      }
    </style>
    <linearGradient id="linear-gradient" x1="0.242" y1="1" x2="1" y2="1" gradientUnits="objectBoundingBox">
      <stop offset="0" stop-color="#fd8c04"/>
      <stop offset="1" stop-color="#fd5400"/>
    </linearGradient>
  </defs>
  <g id="组_6088" data-name="组 6088" transform="translate(-25.339 -22.344)">
    <path id="路径_3432" data-name="路径 3432" class="cls-1" d="M46.115,26.119v17H30.064a2.838,2.838,0,0,1,0-5.675H44.228v-15.1H29.114a3.785,3.785,0,0,0-3.775,3.775V41.232a3.785,3.785,0,0,0,3.775,3.775H48V26.119ZM29.747,30.477a.51.51,0,0,1,.38-.367c.063-.013.127-.051.215-.076l-.481-.583.57-.507a11.7,11.7,0,0,0,.963.709,2.072,2.072,0,0,0,2.192.076c.051-.025.089-.063.152-.1l-2.027-1.989-.6.57-.937-.849c.291-.3.583-.6.862-.887.2-.2.393-.418.6-.608a.529.529,0,0,1,.228-.1c.152-.013.3.013.456,0a.6.6,0,0,0,.266-.089A3.137,3.137,0,0,0,32.9,25.4l.507.469-.76.836c.709.7,1.368,1.368,2.04,2.065a2.506,2.506,0,0,0,.127-2.28A3.4,3.4,0,0,0,33.6,25.131c-.228-.152-.456-.291-.7-.456.165.025.342.025.507.051a3.206,3.206,0,0,1,2.635,2.584,2.8,2.8,0,0,1-.291,1.774,1.366,1.366,0,0,1-.1.19c-.127.253-.127.253.063.469.127.139.253.291.38.418l-.912.925c-.2-.19-.418-.405-.659-.621a2.888,2.888,0,0,1-1.875.456,4.9,4.9,0,0,1-1.913-.608c-.038.127-.089.228-.114.342a.426.426,0,0,1-.722.241.356.356,0,0,1-.152-.418Z" transform="translate(0)"/>
    <path id="路径_3433" data-name="路径 3433" class="cls-2" d="M270.51,758.41h13.213V760.3H270.51Z" transform="translate(-239.508 -719.066)"/>
  </g>
</svg>
