<svg xmlns="http://www.w3.org/2000/svg" xmlns:xlink="http://www.w3.org/1999/xlink" width="25.572" height="25.616" viewBox="0 0 25.572 25.616">
  <defs>
    <style>
      .cls-1 {
        opacity: 0.3;
      }

      .cls-1, .cls-2 {
        fill: url(#linear-gradient);
      }
    </style>
    <linearGradient id="linear-gradient" x1="0.209" y1="1" x2="0.5" y2="0.24" gradientUnits="objectBoundingBox">
      <stop offset="0" stop-color="#708af7"/>
      <stop offset="1" stop-color="#88d0e6"/>
    </linearGradient>
  </defs>
  <g id="组_4556" data-name="组 4556" transform="translate(-175 -291)">
    <path id="路径_2946" data-name="路径 2946" class="cls-1" d="M45.019,41.87c2.524,2.524,3.578,5.386,3.239,7.684a1.557,1.557,0,0,0,.339,1.205,1.353,1.353,0,0,0,1.883,0,1.523,1.523,0,0,0,.377-.866c.3-2-.075-6.027-3.993-9.944-3.842-3.88-7.873-4.256-9.869-3.955a1.894,1.894,0,0,0-.866.377,1.353,1.353,0,0,0,0,1.883,1.422,1.422,0,0,0,1.205.339C39.67,38.291,42.533,39.346,45.019,41.87Z" transform="translate(149.634 255.088)"/>
    <path id="路径_2971" data-name="路径 2971" class="cls-2" d="M35.188,51.738c2.3,2.3,4.972,4.482,5.989,3.428,1.507-1.507,2.411-2.825,5.725-.188s.791,4.445-.678,5.914c-1.657,1.7-7.948.113-14.125-6.064C25.922,48.687,24.3,42.4,26,40.74c1.431-1.469,3.2-4.03,5.876-.716s1.356,4.256-.113,5.763C30.705,46.8,32.89,49.478,35.188,51.738ZM38.54,40.853a1.442,1.442,0,0,0-1.168.377,1.353,1.353,0,0,0,0,1.883,1.56,1.56,0,0,0,.753.377,6.073,6.073,0,0,1,3.5,1.808,6.15,6.15,0,0,1,1.808,3.541,1.56,1.56,0,0,0,.377.753,1.353,1.353,0,0,0,1.883,0,1.442,1.442,0,0,0,.377-1.168,9.3,9.3,0,0,0-2.561-5.01,8.836,8.836,0,0,0-4.972-2.561Z" transform="translate(149.634 255.088)"/>
  </g>
</svg>
