<svg xmlns="http://www.w3.org/2000/svg" xmlns:xlink="http://www.w3.org/1999/xlink" width="22" height="22" viewBox="0 0 22 22">
  <defs>
    <style>
      .cls-1 {
        fill: url(#linear-gradient);
      }
    </style>
    <linearGradient id="linear-gradient" x1="0.067" y1="0.177" x2="0.705" y2="0.653" gradientUnits="objectBoundingBox">
      <stop offset="0" stop-color="#f8cc10"/>
      <stop offset="1" stop-color="#ffb100"/>
    </linearGradient>
  </defs>
  <path id="路径_3502" data-name="路径 3502" class="cls-1" d="M88.505,75.807a.73.73,0,0,1-.111.331.719.719,0,0,0,.735-.309A.655.655,0,0,1,88.505,75.807Zm-.576-.381a.431.431,0,0,1,.229-.621s-.75-.1-.744.88A.783.783,0,0,0,87.929,75.426Zm.336-.53c.022.769-.79,1.06-1.238,1.162-.6-2.819-3.191-5.1-6.583-5.907a3.554,3.554,0,0,0,1.036-2.51,3.6,3.6,0,0,0-7.209,0,3.553,3.553,0,0,0,.985,2.458,10.656,10.656,0,0,0-2.886,1.067A2.049,2.049,0,0,1,71.176,69.9s-.91.536-.2,2.209a7.1,7.1,0,0,0-2.5,3.817h-.693a.647.647,0,0,0-.649.644V79.5a.646.646,0,0,0,.649.644h1.229a8.164,8.164,0,0,0,3.444,3.363A2.339,2.339,0,0,0,72.4,84a1.84,1.84,0,0,0,1.662,1.976,1.719,1.719,0,0,0,1.579-1.361,11.881,11.881,0,0,0,4.251-.012,1.9,1.9,0,0,0,2.116,1.416,1.316,1.316,0,0,0,.189-.069.921.921,0,0,0,.192-.105l.012-.008.008-.005a2.109,2.109,0,0,0,.63-2.311l0-.014a7.205,7.205,0,0,0,4.124-6.185q0-.185-.011-.366C89.037,76.258,88.265,74.9,88.265,74.9Zm-16.875.576a.848.848,0,1,1,.854-.848A.851.851,0,0,1,71.39,75.471Zm6.458-5.415a2.465,2.465,0,1,1,2.483-2.466A2.474,2.474,0,0,1,77.848,70.056Zm.8-4.19-.612,1.246a2.508,2.508,0,0,0-.12.279h-.009q-.064-.162-.115-.267l-.609-1.258h-.513l.871,1.614h-.713v.356h.846v.5h-.846v.358h.846V69.4h.448V68.69h.821v-.358h-.821v-.5h.821V67.48h-.7l.883-1.614Z" transform="translate(-67.13 -64.062)"/>
</svg>
