<svg xmlns="http://www.w3.org/2000/svg" xmlns:xlink="http://www.w3.org/1999/xlink" width="24.17" height="25.137" viewBox="0 0 24.17 25.137">
  <defs>
    <style>
      .cls-1 {
        opacity: 0.3;
      }

      .cls-1, .cls-2 {
        fill: url(#linear-gradient);
      }
    </style>
    <linearGradient id="linear-gradient" x1="0.785" y1="0.745" x2="0.115" y2="0.195" gradientUnits="objectBoundingBox">
      <stop offset="0" stop-color="#709ff7"/>
      <stop offset="1" stop-color="#88c5e6"/>
    </linearGradient>
  </defs>
  <g id="组_4551" data-name="组 4551" transform="translate(-179.201 -179.199)">
    <path id="路径_2953" data-name="路径 2953" class="cls-1" d="M307.878,184.824a1.469,1.469,0,0,0,1.4,0,1.261,1.261,0,0,0,.683-1.127V180.5a1.262,1.262,0,0,0-.683-1.127,1.47,1.47,0,0,0-1.4,0,1.262,1.262,0,0,0-.684,1.127V183.7A1.265,1.265,0,0,0,307.878,184.824Zm11.747-.021a1.47,1.47,0,0,0,1.38,0,1.267,1.267,0,0,0,.692-1.106V180.5A1.261,1.261,0,0,0,321,179.4a1.471,1.471,0,0,0-1.381,0,1.27,1.27,0,0,0-.691,1.106V183.7a1.262,1.262,0,0,0,.691,1.106Z" transform="translate(-123.159)"/>
    <path id="路径_2954" data-name="路径 2954" class="cls-2" d="M200.213,281.6h-.345v1.172a2.631,2.631,0,0,1-5.253,0V281.6h-6.657v1.172a2.489,2.489,0,0,1-1.313,2.175,2.737,2.737,0,0,1-2.626,0,2.486,2.486,0,0,1-1.314-2.175V281.6h-.345a3.1,3.1,0,0,0-3.159,3.02v15.229a3.1,3.1,0,0,0,3.159,3.02h17.853a3.1,3.1,0,0,0,3.159-3.02V284.623A3.093,3.093,0,0,0,200.213,281.6Zm-3.291,9.494-5.732,5.482a1.346,1.346,0,0,1-1.79.03l-3.89-3.725a1.131,1.131,0,0,1-.314-1.129,1.2,1.2,0,0,1,.865-.828,1.263,1.263,0,0,1,1.181.3l3.042,2.908,4.911-4.695a1.267,1.267,0,0,1,1.731,0,1.139,1.139,0,0,1,0,1.655Z" transform="translate(0 -98.536)"/>
  </g>
</svg>
