<svg xmlns="http://www.w3.org/2000/svg" xmlns:xlink="http://www.w3.org/1999/xlink" width="29.575" height="23.656" viewBox="0 0 29.575 23.656">
  <defs>
    <style>
      .cls-1 {
        fill: url(#linear-gradient);
      }
    </style>
    <linearGradient id="linear-gradient" x1="0.067" y1="0.177" x2="0.705" y2="0.653" gradientUnits="objectBoundingBox">
      <stop offset="0" stop-color="#f8cc10"/>
      <stop offset="1" stop-color="#ffb100"/>
    </linearGradient>
  </defs>
  <g id="组_6109" data-name="组 6109" transform="translate(-49.204 -141.144)">
    <path id="路径_3483" data-name="路径 3483" class="cls-1" d="M78.49,155.1c-.486-.625-1.579-1.146-3.795.149.206-.91-.525-1.473-1.389-1.473a3.25,3.25,0,0,0-2.369.909c-1.02-1.328-2.07-1.169-4.113.083-.779.478-1.465.886-1.976,1.172-.136.076-.245.133-.355.191a3.075,3.075,0,0,0,.627.077c2.866,0,5.129,0,5.129,2.459,0,1.889-2.22,2.455-3.394,2.478H62.789c-2.188,0-4.33-2.276-4.33-2.276a14.617,14.617,0,0,0,4.33,1.025h4.054c.008,0,2.163-.084,2.163-1.227,0-1.046-1.093-1.229-2.814-1.229a6.341,6.341,0,0,1-4.166-1.258s-2.183-1.577-2.854-1.991c-1.586-.98-2.445-1.484-5.3-.409-1.763.664-4.67,2.026-4.67,2.026l3.535,7.755,1.665-1a3.064,3.064,0,0,1,3.247,0,44.832,44.832,0,0,0,4.946,1.792c2.164.678,2.534.588,3.957-.224,1.214-.691,9.824-5.724,10.727-6.355C78.692,156.783,79.132,155.923,78.49,155.1Zm-6.437-9.748a2.542,2.542,0,0,0-.44-3.492h0a2.369,2.369,0,0,0-3.709.476l-2.317,3.283,4.13,2.984,2.337-3.25Z"/>
    <path id="路径_3484" data-name="路径 3484" class="cls-1" d="M223.285,185.188a2.369,2.369,0,0,0,3.709-.475h0l2.317-3.283-4.13-2.984-2.337,3.249A2.545,2.545,0,0,0,223.285,185.188Zm-4.793-10.852h0Zm-.835,7.154.835-7.153a3.606,3.606,0,0,0-.835,7.153Zm.584.056a3.609,3.609,0,0,0,.832-7.127l-.832,7.127h0Z" transform="translate(-160.161 -32.124)"/>
  </g>
</svg>
