<svg xmlns="http://www.w3.org/2000/svg" xmlns:xlink="http://www.w3.org/1999/xlink" width="18.445" height="21.284" viewBox="0 0 18.445 21.284">
  <defs>
    <style>
      .cls-1 {
        fill: url(#linear-gradient);
      }
    </style>
    <linearGradient id="linear-gradient" y1="0.5" x2="1" y2="0.5" gradientUnits="objectBoundingBox">
      <stop offset="0" stop-color="#f2679f"/>
      <stop offset="1" stop-color="#fd8376"/>
    </linearGradient>
  </defs>
  <path id="路径_3503" data-name="路径 3503" class="cls-1" d="M140.252,78.321a2.369,2.369,0,0,1-1.032-1.956v-4.73a7.331,7.331,0,0,0-5.971-7.07v-.171a1.626,1.626,0,0,0-3.251,0v.168a7.329,7.329,0,0,0-5.971,7.07v4.73a2.372,2.372,0,0,1-.916,1.87c-.066.052-.093.071-.271.2a1.048,1.048,0,0,0-.439.857,1.072,1.072,0,0,0,1.085,1.063h16.276a1.072,1.072,0,0,0,1.085-1.063,1.051,1.051,0,0,0-.5-.9A.576.576,0,0,1,140.252,78.321Zm-8.625,5.762a2.688,2.688,0,0,0,2.715-2.66h-5.43A2.688,2.688,0,0,0,131.627,84.084Z" transform="translate(-122.4 -62.8)"/>
</svg>
