<svg xmlns="http://www.w3.org/2000/svg" xmlns:xlink="http://www.w3.org/1999/xlink" width="25.369" height="25.399" viewBox="0 0 25.369 25.399">
  <defs>
    <style>
      .cls-1, .cls-2 {
        fill: url(#linear-gradient);
      }

      .cls-2 {
        opacity: 0.3;
      }
    </style>
    <linearGradient id="linear-gradient" x2="1" y2="1" gradientUnits="objectBoundingBox">
      <stop offset="0" stop-color="#84d058"/>
      <stop offset="1" stop-color="#34be77"/>
    </linearGradient>
  </defs>
  <g id="组_6136" data-name="组 6136" transform="translate(-238 -468)">
    <path id="路径_2964" data-name="路径 2964" class="cls-1" d="M19.9,14.129a5.638,5.638,0,0,0,0,11.27,5.638,5.638,0,0,0,0-11.27Zm2.959,4.4L19.227,22.16a.325.325,0,0,1-.46,0l-.688-.688-1.134-1.134a.325.325,0,0,1,0-.46l.688-.688a.325.325,0,0,1,.46,0l.917.919,2.716-2.716a.325.325,0,0,1,.458,0l.688.688a.347.347,0,0,1-.012.446Z" transform="translate(238 468)"/>
    <path id="路径_2974" data-name="路径 2974" class="cls-1" d="M11.856,19.71H1.186A1.192,1.192,0,0,0,0,20.9v2.079A1.192,1.192,0,0,0,1.186,24.16H11.856a1.193,1.193,0,0,0,1.186-1.186V20.894a1.184,1.184,0,0,0-1.186-1.186Z" transform="translate(238 468)"/>
    <path id="路径_2975" data-name="路径 2975" class="cls-2" d="M1.249,16.879h2.46A1.192,1.192,0,0,0,4.9,15.7V10.327A1.192,1.192,0,0,0,3.711,9.142H1.251A1.192,1.192,0,0,0,.063,10.327V15.7a1.191,1.191,0,0,0,1.186,1.186Z" transform="translate(238 468)"/>
    <path id="路径_2976" data-name="路径 2976" class="cls-1" d="M9.319,16.879h2.46A1.192,1.192,0,0,0,12.967,15.7V6.005a1.192,1.192,0,0,0-1.186-1.186H9.321A1.192,1.192,0,0,0,8.134,6.005V15.7a1.184,1.184,0,0,0,1.186,1.186Zm11.716-4.408V1.186A1.192,1.192,0,0,0,19.852,0h-2.46a1.192,1.192,0,0,0-1.186,1.186v12.3A5.643,5.643,0,0,1,19.674,12.3a5.258,5.258,0,0,1,1.363.167Z" transform="translate(238 468)"/>
  </g>
</svg>
