<svg xmlns="http://www.w3.org/2000/svg" xmlns:xlink="http://www.w3.org/1999/xlink" width="22.905" height="22.834" viewBox="0 0 22.905 22.834">
  <defs>
    <style>
      .cls-1 {
        fill: url(#linear-gradient);
      }
    </style>
    <linearGradient id="linear-gradient" x1="0.209" y1="1" x2="0.5" y2="0.24" gradientUnits="objectBoundingBox">
      <stop offset="0" stop-color="#708af7"/>
      <stop offset="1" stop-color="#88d0e6"/>
    </linearGradient>
  </defs>
  <g id="组_6110" data-name="组 6110" transform="translate(-74.638 -56.889)">
    <path id="路径_3486" data-name="路径 3486" class="cls-1" d="M93.688,56.889H77.617a2.919,2.919,0,0,0-2.979,2.854V76.816a2.919,2.919,0,0,0,2.979,2.854h10.24a6.377,6.377,0,0,1-2.183-5.836,6.692,6.692,0,0,1,5.675-5.477A7.039,7.039,0,0,1,96.667,69.7V59.743a2.92,2.92,0,0,0-2.98-2.854M82.255,75.68h-3.4a.893.893,0,1,1,0-1.784h3.4a.893.893,0,1,1,0,1.784m3.37-6.508H78.858a.893.893,0,1,1,0-1.784h6.768a.893.893,0,1,1,0,1.784m6.768-6.509H78.858a.893.893,0,1,1,0-1.784H92.394a.893.893,0,1,1,0,1.784" transform="translate(0)"/>
    <path id="路径_3487" data-name="路径 3487" class="cls-1" d="M563.231,575.858a5.122,5.122,0,1,0,5.122,5.122,5.123,5.123,0,0,0-5.122-5.122m3.187,4.542-1.52,1.432.388,2.052a.153.153,0,0,1-.223.162l-1.831-1-1.832,1a.153.153,0,0,1-.223-.162l.388-2.052-1.52-1.432a.153.153,0,0,1,.086-.264l2.071-.264.892-1.889a.153.153,0,0,1,.276,0l.891,1.889,2.072.264a.153.153,0,0,1,.086.264" transform="translate(-470.811 -506.38)"/>
  </g>
</svg>
