<svg xmlns="http://www.w3.org/2000/svg" width="13.468" height="13.467" viewBox="0 0 13.468 13.467">
  <defs>
    <style>
      .cls-1 {
        fill: #fff;
      }
    </style>
  </defs>
  <path id="路径_3084" data-name="路径 3084" class="cls-1" d="M223.861,238.811h-.294l.064-.137a1.782,1.782,0,0,0,.171-.91,1.492,1.492,0,0,0-.729-1.13,1.825,1.825,0,0,0-1.033-.294,2.635,2.635,0,0,0-.631.083,5.914,5.914,0,0,0-2.829,1.967l-.078.093-.078-.093a5.881,5.881,0,0,0-2.829-1.967,2.674,2.674,0,0,0-.636-.083,1.82,1.82,0,0,0-1.028.294,1.506,1.506,0,0,0-.729,1.13,1.782,1.782,0,0,0,.171.91l.064.137h-.294a1.381,1.381,0,0,0-1.38,1.375v1.649a1.377,1.377,0,0,0,.8,1.248l.073.034-.02.078a1.5,1.5,0,0,0-.034.294v4.943a1.377,1.377,0,0,0,1.38,1.375h9.063a1.376,1.376,0,0,0,1.375-1.375v-4.943a1.2,1.2,0,0,0-.034-.294l-.015-.078.073-.034a1.384,1.384,0,0,0,.8-1.243v-1.649A1.37,1.37,0,0,0,223.861,238.811Zm-9.548-.944c0-.083.039-.181.23-.308a.991.991,0,0,1,.788-.064,4.393,4.393,0,0,1,1.825,1.145l.171.166H214.8l-.029-.034A1.519,1.519,0,0,1,214.313,237.866Zm3.636,10.835H213.97a.272.272,0,0,1-.269-.269v-4.943a.272.272,0,0,1,.269-.269h3.979Zm0-6.592h-4.8a.272.272,0,0,1-.269-.269v-1.649a.272.272,0,0,1,.269-.269h4.8Zm1.9-3.465a4.375,4.375,0,0,1,1.83-1.145.991.991,0,0,1,.788.064c.191.127.225.225.23.308.034.347-.406.856-.46.91l-.029.034h-2.535Zm3.46,9.787a.272.272,0,0,1-.269.269H219.06v-5.486h3.979a.272.272,0,0,1,.269.269Zm.822-6.592a.272.272,0,0,1-.269.269h-4.8v-2.187h4.8a.272.272,0,0,1,.269.269Z" transform="translate(-211.763 -236.339)"/>
</svg>
